HIERARCHY
ROOT hip
{
	OFFSET 0.000000 0.000000 0.000000 
	CHANNELS 6 Xposition Yposition Zposition Xrotation Zrotation Yrotation
	JOINT abdomen
	{
		OFFSET 0.000000 3.402643 0.000000 
		CHANNELS 3 Xrotation Zrotation Yrotation
		JOINT chest
		{
			OFFSET 0.000000 8.438565 -0.680529 
			CHANNELS 3 Xrotation Zrotation Yrotation
			JOINT neck
			{
				OFFSET 0.000000 10.207942 -0.272212 
				CHANNELS 3 Xrotation Zrotation Yrotation
				JOINT head
				{
					OFFSET 0.000000 3.130431 0.000000 
					CHANNELS 3 Xrotation Zrotation Yrotation
					End Site
					{
						OFFSET 0.000000 3.130435 0.000000 
					}
				}
			}
			JOINT lCollar
			{
				OFFSET 3.470700 6.669187 -0.816635 
				CHANNELS 3 Yrotation Zrotation Xrotation
				JOINT lShldr
				{
					OFFSET 3.198488 0.000000 0.000000 
					CHANNELS 3 Zrotation Yrotation Xrotation
					JOINT lForeArm
					{
						OFFSET 10.139888 0.000000 0.000000 
						CHANNELS 3 Yrotation Zrotation Xrotation
						JOINT lHand
						{
							OFFSET 8.370511 0.000000 0.000000 
							CHANNELS 3 Zrotation Yrotation Xrotation
							End Site
							{
								OFFSET 4.083176 0.000000 0.000000 
							}
						}
					}
				}
			}
			JOINT rCollar
			{
				OFFSET -3.470700 6.669187 -0.816635 
				CHANNELS 3 Yrotation Zrotation Xrotation
				JOINT rShldr
				{
					OFFSET -3.198488 0.000000 0.000000 
					CHANNELS 3 Zrotation Yrotation Xrotation
					JOINT rForeArm
					{
						OFFSET -10.139888 0.000000 0.000000 
						CHANNELS 3 Yrotation Zrotation Xrotation
						JOINT rHand
						{
							OFFSET -8.370511 0.000000 0.000000 
							CHANNELS 3 Zrotation Yrotation Xrotation
							End Site
							{
								OFFSET -4.083176 0.000000 0.000000 
							}
						}
					}
				}
			}
		}
	}
	JOINT lThigh
	{
		OFFSET 5.308129 -1.633274 1.361059 
		CHANNELS 3 Xrotation Zrotation Yrotation
		JOINT lShin
		{
			OFFSET -2.041588 -20.007561 0.000000 
			CHANNELS 3 Xrotation Zrotation Yrotation
			JOINT lFoot
			{
				OFFSET 0.000000 -19.190928 -1.224953 
				CHANNELS 3 Xrotation Yrotation Zrotation
				End Site
				{
					OFFSET 0.000000 -2.449906 4.627600 
				}
			}
		}
	}
	JOINT rThigh
	{
		OFFSET -5.308129 -1.633274 1.361059 
		CHANNELS 3 Xrotation Zrotation Yrotation
		JOINT rShin
		{
			OFFSET 2.041588 -20.007561 0.000000 
			CHANNELS 3 Xrotation Zrotation Yrotation
			JOINT rFoot
			{
				OFFSET 0.000000 -19.190928 -1.224953 
				CHANNELS 3 Xrotation Yrotation Zrotation
				End Site
				{
					OFFSET 0.000000 -2.449906 4.627600 
				}
			}
		}
	}
}
MOTION
Frames: 8
Frame Time: 0.033333
-0.062163 51.608341 1.170957 5.449219 0.166016 5.986356 32.608585 -11.296506 -8.902951 -20.419922 10.371094 -1.424023 51.063168 8.107644 2.471410 -64.570313 -10.048827 4.072267 2.000000 -2.000000 0.000000 -61.396481 19.072266 18.421160 -68.866478 -1.267249 -2.661078 33.761524 70.587898 38.731701 -2.000000 2.000000 0.000000 68.603516 -41.582031 13.691406 75.147362 0.782049 -2.728685 -54.564613 -61.830479 68.236572 -4.081622 2.021277 4.071024 18.254436 -5.129187 -1.991093 -15.811717 7.572236 -1.356364 -20.748976 -14.272743 -22.824184 41.497383 3.749446 3.427737 1.253022 -15.919212 5.763054 
-0.119716 51.592579 2.327576 5.791016 0.000000 5.625000 32.450665 -11.926071 -8.867719 -19.882813 10.351563 -0.974808 51.063168 8.107644 2.471410 -64.580078 -8.847655 4.335938 2.000000 -2.000000 0.000000 -60.058590 16.337891 18.616032 -69.394386 -1.248882 -2.681704 32.916862 69.918190 37.136650 -2.000000 2.000000 0.000000 69.150391 -41.523441 14.280637 75.149689 0.923626 -2.808501 -56.589813 -62.013672 69.708618 -2.679177 2.259527 3.537094 17.550865 -5.174356 -1.928268 -15.874578 7.497914 -1.404680 -23.229208 -13.218734 -22.489170 36.922394 4.058336 2.757135 -0.183054 -13.579556 5.715264 
-0.207378 51.553192 3.532067 6.152344 -0.175781 5.429688 32.337025 -12.709332 -8.928396 -19.179689 10.136719 -0.527328 51.063168 8.107644 2.471410 -64.443359 -7.646484 3.867187 2.000000 -2.000000 0.000000 -59.296875 14.804688 19.318901 -69.746231 -1.239698 -2.692228 31.971371 69.285461 36.002491 -2.000000 2.000000 0.000000 69.677734 -42.021484 14.427057 75.154808 0.943262 -2.640974 -57.248287 -61.851639 70.206108 -1.239636 2.430159 3.336857 16.497290 -5.216645 -1.815347 -16.302303 7.913120 -2.096997 -25.570210 -12.210260 -22.278276 32.347206 4.286284 2.619640 -2.441249 -10.406727 5.753260 
-0.338435 51.435020 4.868060 6.494141 -0.175781 5.419922 32.184830 -13.338416 -8.896662 -18.466797 10.107423 -0.047114 51.063168 8.107644 2.471410 -64.042969 -7.197265 2.821042 2.000000 -2.000000 0.000000 -58.974606 13.251954 21.027630 -69.915024 -1.401905 -2.790380 32.179066 68.811951 36.363728 -2.000000 2.000000 0.000000 70.244141 -42.695313 14.257813 74.979027 0.943262 -2.640974 -57.106419 -61.303837 69.881149 0.497077 2.876471 2.486238 15.834344 -5.635841 -1.498128 -17.436892 7.894925 -1.908764 -27.494926 -11.157428 -21.953491 27.940483 4.500586 2.461869 -3.622076 -8.260588 5.809909 
-0.501362 51.340485 6.303259 6.660156 -0.537109 5.908213 31.837715 -13.827079 -8.739922 -17.929689 9.902344 0.185547 51.063168 8.107644 2.471410 -63.320313 -7.089843 1.826171 2.000000 -2.000000 0.000000 -59.013676 12.128906 22.978518 -70.090790 -1.411654 -2.789814 32.367611 68.779381 36.918278 -2.000000 2.000000 0.000000 69.638672 -43.603519 14.863282 74.797829 0.942559 -2.797628 -56.299374 -60.201122 69.360802 2.182694 3.586459 2.163769 15.481629 -5.635272 -1.457292 -16.957327 8.166278 -1.799856 -28.470480 -9.799585 -21.818296 23.014784 4.716184 1.929624 -3.277593 -7.443434 4.472491 
-0.664288 51.175041 7.738455 6.855469 -0.878906 6.367038 31.683775 -14.226258 -8.764095 -17.412109 9.882813 0.616911 51.063168 8.107644 2.471410 -62.763676 -6.972656 0.830078 2.000000 -2.000000 0.000000 -59.257813 10.957031 25.224607 -70.266853 -1.402470 -2.800125 32.062412 68.444817 37.570023 -2.000000 2.000000 0.000000 69.687500 -44.677734 14.990235 74.619446 0.810166 -2.707503 -55.866234 -59.226543 69.028000 3.609740 4.108546 1.309820 15.132764 -5.705045 -1.113047 -16.791594 8.374350 -1.207372 -29.286331 -8.202724 -21.188318 18.242975 4.958513 1.226714 -3.080364 -6.410568 3.290001 
-0.704450 51.064747 8.948767 7.011719 -1.396484 7.363073 31.311575 -14.098595 -8.630332 -16.875000 9.853516 0.888672 51.063168 8.107644 2.471410 -61.767578 -7.607421 -0.078125 2.000000 -2.000000 0.000000 -59.960941 10.693358 26.611328 -70.442924 -1.393286 -2.810436 31.854401 68.486580 37.700111 -2.000000 2.000000 0.000000 69.462891 -45.097656 15.126953 74.451401 0.962194 -2.630098 -55.304844 -59.011292 68.548622 3.685913 5.053003 1.043035 17.616144 -5.579586 -1.638041 -15.799594 8.673899 -0.046847 -28.904955 -6.229661 -21.658943 12.778849 5.037135 1.114507 -0.682456 -6.945425 -0.496069 
-0.296755 51.096260 9.431080 7.011718 -1.923828 8.359375 30.733191 -13.502584 -8.600559 -16.337891 9.638674 0.947266 51.063168 8.107644 2.471410 -60.791012 -8.583983 -0.421380 2.000000 -2.000000 0.000000 -60.869144 11.337891 27.333981 -70.262115 -1.060252 -2.634007 31.020237 68.467575 37.023998 -2.000000 2.000000 0.000000 68.564453 -45.126953 15.976563 74.277374 0.819350 -2.697193 -55.897728 -58.776714 69.602356 3.512557 5.220029 0.195581 19.169975 -5.076193 -2.050891 -13.447659 8.716886 0.816114 -28.113977 -4.355145 -21.213247 8.198488 5.163231 0.403021 1.247183 -7.874483 -4.056694 
